<svg xmlns="http://www.w3.org/2000/svg" xmlns:xlink="http://www.w3.org/1999/xlink" width="500" zoomAndPan="magnify" viewBox="0 0 375 374.999991" height="500" preserveAspectRatio="xMidYMid meet" version="1.0"><defs><g/><clipPath id="de94ac5873"><path d="M 40 95 L 143 95 L 143 165 L 40 165 Z M 40 95 " clip-rule="nonzero"/></clipPath><clipPath id="b666267000"><path d="M 134.488281 164.113281 L 125.050781 153.351562 C 125.050781 153.351562 128.738281 140.667969 130.378906 129.484375 C 131.453125 122.113281 130.078125 116.785156 123.585938 111.617188 C 121.011719 109.570312 117.359375 108.742188 113.480469 108.742188 C 107.585938 108.742188 101.132812 110.628906 97.039062 112.9375 C 90.246094 116.765625 40.835938 141.550781 40.835938 141.550781 C 40.835938 141.550781 79.328125 108.953125 93.351562 101.136719 C 99.949219 97.449219 106.421875 95.773438 112.457031 95.722656 L 112.933594 95.722656 C 119.511719 95.773438 125.5625 97.785156 130.660156 101.277344 C 140.539062 108.070312 144.226562 121.476562 141.140625 136.382812 C 138.050781 151.289062 134.507812 164.113281 134.507812 164.113281 Z M 134.488281 164.113281 " clip-rule="nonzero"/></clipPath><linearGradient x1="-0.0000174171" gradientTransform="matrix(101.360563, 0, 0, 101.360563, 40.838844, 129.917537)" y1="0" x2="1.019995" gradientUnits="userSpaceOnUse" y2="0" id="2780edd7fd"><stop stop-opacity="1" stop-color="rgb(0%, 90.59906%, 99.598694%)" offset="0"/><stop stop-opacity="1" stop-color="rgb(0%, 90.742493%, 99.578857%)" offset="0.03125"/><stop stop-opacity="1" stop-color="rgb(0%, 91.029358%, 99.54071%)" offset="0.0625"/><stop stop-opacity="1" stop-color="rgb(0%, 91.316223%, 99.502563%)" offset="0.09375"/><stop stop-opacity="1" stop-color="rgb(0%, 91.603088%, 99.464417%)" offset="0.125"/><stop stop-opacity="1" stop-color="rgb(0%, 91.889954%, 99.42627%)" offset="0.15625"/><stop stop-opacity="1" stop-color="rgb(0%, 92.176819%, 99.388123%)" offset="0.1875"/><stop stop-opacity="1" stop-color="rgb(0%, 92.463684%, 99.349976%)" offset="0.21875"/><stop stop-opacity="1" stop-color="rgb(0%, 92.750549%, 99.311829%)" offset="0.25"/><stop stop-opacity="1" stop-color="rgb(0%, 93.037415%, 99.273682%)" offset="0.28125"/><stop stop-opacity="1" stop-color="rgb(0%, 93.32428%, 99.235535%)" offset="0.3125"/><stop stop-opacity="1" stop-color="rgb(0%, 93.611145%, 99.197388%)" offset="0.34375"/><stop stop-opacity="1" stop-color="rgb(0%, 93.89801%, 99.159241%)" offset="0.375"/><stop stop-opacity="1" stop-color="rgb(0%, 94.184875%, 99.121094%)" offset="0.40625"/><stop stop-opacity="1" stop-color="rgb(0%, 94.471741%, 99.081421%)" offset="0.4375"/><stop stop-opacity="1" stop-color="rgb(0%, 94.758606%, 99.043274%)" offset="0.46875"/><stop stop-opacity="1" stop-color="rgb(0%, 95.045471%, 99.005127%)" offset="0.5"/><stop stop-opacity="1" stop-color="rgb(0%, 95.332336%, 98.96698%)" offset="0.53125"/><stop stop-opacity="1" stop-color="rgb(0%, 95.619202%, 98.928833%)" offset="0.5625"/><stop stop-opacity="1" stop-color="rgb(0%, 95.906067%, 98.890686%)" offset="0.59375"/><stop stop-opacity="1" stop-color="rgb(0%, 96.192932%, 98.852539%)" offset="0.625"/><stop stop-opacity="1" stop-color="rgb(0%, 96.479797%, 98.814392%)" offset="0.65625"/><stop stop-opacity="1" stop-color="rgb(0%, 96.766663%, 98.776245%)" offset="0.6875"/><stop stop-opacity="1" stop-color="rgb(0%, 97.053528%, 98.738098%)" offset="0.71875"/><stop stop-opacity="1" stop-color="rgb(0%, 97.340393%, 98.699951%)" offset="0.75"/><stop stop-opacity="1" stop-color="rgb(0%, 97.627258%, 98.661804%)" offset="0.78125"/><stop stop-opacity="1" stop-color="rgb(0%, 97.914124%, 98.623657%)" offset="0.8125"/><stop stop-opacity="1" stop-color="rgb(0%, 98.200989%, 98.58551%)" offset="0.84375"/><stop stop-opacity="1" stop-color="rgb(0%, 98.487854%, 98.547363%)" offset="0.875"/><stop stop-opacity="1" stop-color="rgb(0%, 98.774719%, 98.50769%)" offset="0.90625"/><stop stop-opacity="1" stop-color="rgb(0%, 99.061584%, 98.469543%)" offset="0.9375"/><stop stop-opacity="1" stop-color="rgb(0%, 99.34845%, 98.431396%)" offset="0.96875"/><stop stop-opacity="1" stop-color="rgb(0%, 99.545288%, 98.405457%)" offset="1"/></linearGradient><clipPath id="653f46ce41"><path d="M 9 96 L 79 96 L 79 199 L 9 199 Z M 9 96 " clip-rule="nonzero"/></clipPath><clipPath id="376ac8204b"><path d="M 55.441406 198.050781 C 55.441406 198.050781 22.84375 159.5625 15.03125 145.539062 C 11.308594 138.871094 9.632812 132.34375 9.613281 126.257812 L 9.613281 126.152344 C 9.632812 119.5 11.644531 113.378906 15.171875 108.230469 C 20.390625 100.625 29.546875 96.691406 40.273438 96.691406 L 50.273438 97.769531 C 65.179688 100.855469 78.003906 104.402344 78.003906 104.402344 L 67.246094 113.839844 C 67.246094 113.839844 54.5625 110.152344 43.378906 108.511719 L 39.230469 108.175781 C 33.90625 108.175781 29.652344 110.097656 25.527344 115.300781 C 20.355469 121.792969 23.019531 135.058594 26.847656 141.851562 C 30.675781 148.640625 55.441406 198.050781 55.441406 198.050781 Z M 55.441406 198.050781 " clip-rule="nonzero"/></clipPath><linearGradient x1="-0.00000000269892" gradientTransform="matrix(68.39118, 0, 0, 68.39118, 9.613985, 147.372496)" y1="0" x2="0.999996" gradientUnits="userSpaceOnUse" y2="0" id="a09f57cbfb"><stop stop-opacity="1" stop-color="rgb(0%, 90.59906%, 99.598694%)" offset="0"/><stop stop-opacity="1" stop-color="rgb(0%, 90.739441%, 99.580383%)" offset="0.03125"/><stop stop-opacity="1" stop-color="rgb(0%, 91.020203%, 99.542236%)" offset="0.0625"/><stop stop-opacity="1" stop-color="rgb(0%, 91.30249%, 99.505615%)" offset="0.09375"/><stop stop-opacity="1" stop-color="rgb(0%, 91.583252%, 99.467468%)" offset="0.125"/><stop stop-opacity="1" stop-color="rgb(0%, 91.864014%, 99.429321%)" offset="0.15625"/><stop stop-opacity="1" stop-color="rgb(0%, 92.146301%, 99.3927%)" offset="0.1875"/><stop stop-opacity="1" stop-color="rgb(0%, 92.427063%, 99.354553%)" offset="0.21875"/><stop stop-opacity="1" stop-color="rgb(0%, 92.707825%, 99.317932%)" offset="0.25"/><stop stop-opacity="1" stop-color="rgb(0%, 92.990112%, 99.279785%)" offset="0.28125"/><stop stop-opacity="1" stop-color="rgb(0%, 93.270874%, 99.243164%)" offset="0.3125"/><stop stop-opacity="1" stop-color="rgb(0%, 93.551636%, 99.205017%)" offset="0.34375"/><stop stop-opacity="1" stop-color="rgb(0%, 93.833923%, 99.16687%)" offset="0.375"/><stop stop-opacity="1" stop-color="rgb(0%, 94.114685%, 99.130249%)" offset="0.40625"/><stop stop-opacity="1" stop-color="rgb(0%, 94.395447%, 99.092102%)" offset="0.4375"/><stop stop-opacity="1" stop-color="rgb(0%, 94.677734%, 99.055481%)" offset="0.46875"/><stop stop-opacity="1" stop-color="rgb(0%, 94.958496%, 99.017334%)" offset="0.5"/><stop stop-opacity="1" stop-color="rgb(0%, 95.239258%, 98.980713%)" offset="0.53125"/><stop stop-opacity="1" stop-color="rgb(0%, 95.521545%, 98.942566%)" offset="0.5625"/><stop stop-opacity="1" stop-color="rgb(0%, 95.802307%, 98.904419%)" offset="0.59375"/><stop stop-opacity="1" stop-color="rgb(0%, 96.083069%, 98.867798%)" offset="0.625"/><stop stop-opacity="1" stop-color="rgb(0%, 96.365356%, 98.829651%)" offset="0.65625"/><stop stop-opacity="1" stop-color="rgb(0%, 96.646118%, 98.79303%)" offset="0.6875"/><stop stop-opacity="1" stop-color="rgb(0%, 96.92688%, 98.754883%)" offset="0.71875"/><stop stop-opacity="1" stop-color="rgb(0%, 97.207642%, 98.718262%)" offset="0.75"/><stop stop-opacity="1" stop-color="rgb(0%, 97.489929%, 98.680115%)" offset="0.78125"/><stop stop-opacity="1" stop-color="rgb(0%, 97.770691%, 98.641968%)" offset="0.8125"/><stop stop-opacity="1" stop-color="rgb(0%, 98.051453%, 98.605347%)" offset="0.84375"/><stop stop-opacity="1" stop-color="rgb(0%, 98.33374%, 98.5672%)" offset="0.875"/><stop stop-opacity="1" stop-color="rgb(0%, 98.614502%, 98.530579%)" offset="0.90625"/><stop stop-opacity="1" stop-color="rgb(0%, 98.895264%, 98.492432%)" offset="0.9375"/><stop stop-opacity="1" stop-color="rgb(0%, 99.177551%, 98.455811%)" offset="0.96875"/><stop stop-opacity="1" stop-color="rgb(0%, 99.458313%, 98.417664%)" offset="1"/></linearGradient><clipPath id="a6e0043a6c"><path d="M 9 161 L 111 161 L 111 230 L 9 230 Z M 9 161 " clip-rule="nonzero"/></clipPath><clipPath id="e9e79b0378"><path d="M 39.003906 229.699219 C 32.371094 229.679688 26.285156 227.671875 21.152344 224.140625 C 11.273438 217.351562 7.585938 203.925781 10.691406 189.039062 C 13.792969 174.148438 17.324219 161.308594 17.324219 161.308594 L 26.761719 172.070312 C 26.761719 172.070312 23.074219 184.753906 21.433594 195.9375 C 20.355469 203.308594 21.734375 208.636719 28.222656 213.804688 C 30.800781 215.851562 34.453125 216.679688 38.332031 216.679688 C 44.222656 216.679688 50.679688 214.792969 54.773438 212.480469 C 61.5625 208.65625 110.957031 183.871094 110.957031 183.871094 C 110.957031 183.871094 72.484375 216.46875 58.476562 224.285156 C 51.828125 227.988281 45.316406 229.679688 39.265625 229.699219 Z M 39.003906 229.699219 " clip-rule="nonzero"/></clipPath><linearGradient x1="-1.024388" gradientTransform="matrix(-18.335087, -46.261947, 46.261947, -18.335087, 60.239417, 194.965815)" y1="0" x2="1.018632" gradientUnits="userSpaceOnUse" y2="0" id="3a507a2ced"><stop stop-opacity="1" stop-color="rgb(0%, 90.59906%, 99.598694%)" offset="0"/><stop stop-opacity="1" stop-color="rgb(0%, 90.59906%, 99.598694%)" offset="0.5"/><stop stop-opacity="1" stop-color="rgb(0%, 90.72876%, 99.581909%)" offset="0.515625"/><stop stop-opacity="1" stop-color="rgb(0%, 91.003418%, 99.545288%)" offset="0.53125"/><stop stop-opacity="1" stop-color="rgb(0%, 91.291809%, 99.505615%)" offset="0.546875"/><stop stop-opacity="1" stop-color="rgb(0%, 91.578674%, 99.467468%)" offset="0.5625"/><stop stop-opacity="1" stop-color="rgb(0%, 91.86554%, 99.429321%)" offset="0.578125"/><stop stop-opacity="1" stop-color="rgb(0%, 92.153931%, 99.391174%)" offset="0.59375"/><stop stop-opacity="1" stop-color="rgb(0%, 92.440796%, 99.353027%)" offset="0.609375"/><stop stop-opacity="1" stop-color="rgb(0%, 92.727661%, 99.31488%)" offset="0.625"/><stop stop-opacity="1" stop-color="rgb(0%, 93.014526%, 99.276733%)" offset="0.640625"/><stop stop-opacity="1" stop-color="rgb(0%, 93.302917%, 99.238586%)" offset="0.65625"/><stop stop-opacity="1" stop-color="rgb(0%, 93.589783%, 99.200439%)" offset="0.671875"/><stop stop-opacity="1" stop-color="rgb(0%, 93.876648%, 99.160767%)" offset="0.6875"/><stop stop-opacity="1" stop-color="rgb(0%, 94.165039%, 99.12262%)" offset="0.703125"/><stop stop-opacity="1" stop-color="rgb(0%, 94.451904%, 99.084473%)" offset="0.71875"/><stop stop-opacity="1" stop-color="rgb(0%, 94.73877%, 99.046326%)" offset="0.734375"/><stop stop-opacity="1" stop-color="rgb(0%, 95.025635%, 99.008179%)" offset="0.75"/><stop stop-opacity="1" stop-color="rgb(0%, 95.314026%, 98.970032%)" offset="0.765625"/><stop stop-opacity="1" stop-color="rgb(0%, 95.600891%, 98.931885%)" offset="0.78125"/><stop stop-opacity="1" stop-color="rgb(0%, 95.887756%, 98.893738%)" offset="0.796875"/><stop stop-opacity="1" stop-color="rgb(0%, 96.176147%, 98.855591%)" offset="0.8125"/><stop stop-opacity="1" stop-color="rgb(0%, 96.463013%, 98.817444%)" offset="0.828125"/><stop stop-opacity="1" stop-color="rgb(0%, 96.749878%, 98.777771%)" offset="0.84375"/><stop stop-opacity="1" stop-color="rgb(0%, 97.036743%, 98.739624%)" offset="0.859375"/><stop stop-opacity="1" stop-color="rgb(0%, 97.325134%, 98.701477%)" offset="0.875"/><stop stop-opacity="1" stop-color="rgb(0%, 97.612%, 98.66333%)" offset="0.890625"/><stop stop-opacity="1" stop-color="rgb(0%, 97.898865%, 98.625183%)" offset="0.90625"/><stop stop-opacity="1" stop-color="rgb(0%, 98.187256%, 98.587036%)" offset="0.921875"/><stop stop-opacity="1" stop-color="rgb(0%, 98.474121%, 98.548889%)" offset="0.9375"/><stop stop-opacity="1" stop-color="rgb(0%, 98.760986%, 98.510742%)" offset="0.953125"/><stop stop-opacity="1" stop-color="rgb(0%, 99.047852%, 98.472595%)" offset="0.96875"/><stop stop-opacity="1" stop-color="rgb(0%, 99.336243%, 98.432922%)" offset="0.984375"/><stop stop-opacity="1" stop-color="rgb(0%, 99.539185%, 98.406982%)" offset="1"/></linearGradient><clipPath id="5fff7c7e80"><path d="M 73 127 L 143 127 L 143 229 L 73 229 Z M 73 127 " clip-rule="nonzero"/></clipPath><clipPath id="5939ca7dd7"><path d="M 111.539062 228.730469 L 101.535156 227.652344 C 86.648438 224.566406 73.804688 221.019531 73.804688 221.019531 L 84.566406 211.582031 C 84.566406 211.582031 97.25 215.269531 108.433594 216.910156 L 112.578125 217.246094 C 117.90625 217.246094 122.160156 215.324219 126.285156 210.117188 C 131.453125 203.628906 128.789062 190.363281 124.964844 183.570312 C 121.136719 176.777344 96.367188 127.367188 96.367188 127.367188 C 96.367188 127.367188 128.96875 165.859375 136.78125 179.882812 C 140.488281 186.535156 142.179688 193.042969 142.199219 199.09375 L 142.199219 199.339844 C 142.179688 205.972656 140.167969 212.058594 136.640625 217.191406 C 131.417969 224.796875 122.265625 228.730469 111.539062 228.730469 Z M 111.539062 228.730469 " clip-rule="nonzero"/></clipPath><linearGradient x1="-1.29394" gradientTransform="matrix(-18.335335, 44.287276, -44.287276, -18.335335, 112.737787, 182.299316)" y1="0" x2="1.205659" gradientUnits="userSpaceOnUse" y2="0" id="b7df0d015b"><stop stop-opacity="1" stop-color="rgb(0%, 90.59906%, 99.598694%)" offset="0"/><stop stop-opacity="1" stop-color="rgb(0%, 90.59906%, 99.598694%)" offset="0.5"/><stop stop-opacity="1" stop-color="rgb(0%, 90.751648%, 99.578857%)" offset="0.53125"/><stop stop-opacity="1" stop-color="rgb(0%, 91.079712%, 99.534607%)" offset="0.546875"/><stop stop-opacity="1" stop-color="rgb(0%, 91.43219%, 99.487305%)" offset="0.5625"/><stop stop-opacity="1" stop-color="rgb(0%, 91.783142%, 99.440002%)" offset="0.578125"/><stop stop-opacity="1" stop-color="rgb(0%, 92.13562%, 99.394226%)" offset="0.59375"/><stop stop-opacity="1" stop-color="rgb(0%, 92.486572%, 99.346924%)" offset="0.609375"/><stop stop-opacity="1" stop-color="rgb(0%, 92.837524%, 99.299622%)" offset="0.625"/><stop stop-opacity="1" stop-color="rgb(0%, 93.190002%, 99.253845%)" offset="0.640625"/><stop stop-opacity="1" stop-color="rgb(0%, 93.540955%, 99.206543%)" offset="0.65625"/><stop stop-opacity="1" stop-color="rgb(0%, 93.891907%, 99.159241%)" offset="0.671875"/><stop stop-opacity="1" stop-color="rgb(0%, 94.244385%, 99.111938%)" offset="0.6875"/><stop stop-opacity="1" stop-color="rgb(0%, 94.595337%, 99.066162%)" offset="0.703125"/><stop stop-opacity="1" stop-color="rgb(0%, 94.946289%, 99.01886%)" offset="0.71875"/><stop stop-opacity="1" stop-color="rgb(0%, 95.298767%, 98.971558%)" offset="0.734375"/><stop stop-opacity="1" stop-color="rgb(0%, 95.649719%, 98.925781%)" offset="0.75"/><stop stop-opacity="1" stop-color="rgb(0%, 96.002197%, 98.878479%)" offset="0.765625"/><stop stop-opacity="1" stop-color="rgb(0%, 96.353149%, 98.831177%)" offset="0.78125"/><stop stop-opacity="1" stop-color="rgb(0%, 96.704102%, 98.783875%)" offset="0.796875"/><stop stop-opacity="1" stop-color="rgb(0%, 97.05658%, 98.738098%)" offset="0.8125"/><stop stop-opacity="1" stop-color="rgb(0%, 97.407532%, 98.690796%)" offset="0.828125"/><stop stop-opacity="1" stop-color="rgb(0%, 97.758484%, 98.643494%)" offset="0.84375"/><stop stop-opacity="1" stop-color="rgb(0%, 98.110962%, 98.597717%)" offset="0.859375"/><stop stop-opacity="1" stop-color="rgb(0%, 98.461914%, 98.550415%)" offset="0.875"/><stop stop-opacity="1" stop-color="rgb(0%, 98.812866%, 98.503113%)" offset="0.890625"/><stop stop-opacity="1" stop-color="rgb(0%, 99.165344%, 98.455811%)" offset="0.90625"/><stop stop-opacity="1" stop-color="rgb(0%, 99.468994%, 98.416138%)" offset="0.9375"/><stop stop-opacity="1" stop-color="rgb(0%, 99.598694%, 98.399353%)" offset="1"/></linearGradient><clipPath id="2d8ec6b67d"><path d="M 65 151 L 85 151 L 85 172 L 65 172 Z M 65 151 " clip-rule="nonzero"/></clipPath><clipPath id="f86f25f66d"><path d="M 74.671875 171.011719 L 73.222656 170.941406 C 68.957031 169.988281 66.097656 167.148438 65.320312 163.617188 C 63.929688 157.355469 68.65625 151.816406 74.671875 151.816406 L 75.394531 151.816406 L 76.875 152.066406 C 80.402344 152.839844 83.242188 155.699219 84.039062 159.226562 C 85.429688 165.488281 80.703125 171.011719 74.6875 171.011719 Z M 74.671875 171.011719 " clip-rule="nonzero"/></clipPath><linearGradient x1="-0.0597346" gradientTransform="matrix(19.195093, 0, 0, 19.195093, 65.074664, 161.414056)" y1="0" x2="1.060519" gradientUnits="userSpaceOnUse" y2="0" id="9e0588385c"><stop stop-opacity="1" stop-color="rgb(0%, 90.59906%, 99.598694%)" offset="0"/><stop stop-opacity="1" stop-color="rgb(0%, 90.644836%, 99.59259%)" offset="0.0625"/><stop stop-opacity="1" stop-color="rgb(0%, 90.849304%, 99.565125%)" offset="0.09375"/><stop stop-opacity="1" stop-color="rgb(0%, 91.163635%, 99.523926%)" offset="0.125"/><stop stop-opacity="1" stop-color="rgb(0%, 91.479492%, 99.481201%)" offset="0.15625"/><stop stop-opacity="1" stop-color="rgb(0%, 91.793823%, 99.440002%)" offset="0.1875"/><stop stop-opacity="1" stop-color="rgb(0%, 92.10968%, 99.397278%)" offset="0.21875"/><stop stop-opacity="1" stop-color="rgb(0%, 92.424011%, 99.356079%)" offset="0.25"/><stop stop-opacity="1" stop-color="rgb(0%, 92.739868%, 99.313354%)" offset="0.28125"/><stop stop-opacity="1" stop-color="rgb(0%, 93.054199%, 99.272156%)" offset="0.3125"/><stop stop-opacity="1" stop-color="rgb(0%, 93.370056%, 99.229431%)" offset="0.34375"/><stop stop-opacity="1" stop-color="rgb(0%, 93.684387%, 99.186707%)" offset="0.375"/><stop stop-opacity="1" stop-color="rgb(0%, 94.000244%, 99.145508%)" offset="0.40625"/><stop stop-opacity="1" stop-color="rgb(0%, 94.314575%, 99.102783%)" offset="0.4375"/><stop stop-opacity="1" stop-color="rgb(0%, 94.630432%, 99.061584%)" offset="0.46875"/><stop stop-opacity="1" stop-color="rgb(0%, 94.944763%, 99.01886%)" offset="0.5"/><stop stop-opacity="1" stop-color="rgb(0%, 95.26062%, 98.977661%)" offset="0.53125"/><stop stop-opacity="1" stop-color="rgb(0%, 95.574951%, 98.934937%)" offset="0.5625"/><stop stop-opacity="1" stop-color="rgb(0%, 95.890808%, 98.893738%)" offset="0.59375"/><stop stop-opacity="1" stop-color="rgb(0%, 96.205139%, 98.851013%)" offset="0.625"/><stop stop-opacity="1" stop-color="rgb(0%, 96.51947%, 98.809814%)" offset="0.65625"/><stop stop-opacity="1" stop-color="rgb(0%, 96.835327%, 98.76709%)" offset="0.6875"/><stop stop-opacity="1" stop-color="rgb(0%, 97.149658%, 98.725891%)" offset="0.71875"/><stop stop-opacity="1" stop-color="rgb(0%, 97.465515%, 98.683167%)" offset="0.75"/><stop stop-opacity="1" stop-color="rgb(0%, 97.779846%, 98.641968%)" offset="0.78125"/><stop stop-opacity="1" stop-color="rgb(0%, 98.095703%, 98.599243%)" offset="0.8125"/><stop stop-opacity="1" stop-color="rgb(0%, 98.410034%, 98.558044%)" offset="0.84375"/><stop stop-opacity="1" stop-color="rgb(0%, 98.725891%, 98.51532%)" offset="0.875"/><stop stop-opacity="1" stop-color="rgb(0%, 99.040222%, 98.472595%)" offset="0.90625"/><stop stop-opacity="1" stop-color="rgb(0%, 99.356079%, 98.431396%)" offset="0.9375"/><stop stop-opacity="1" stop-color="rgb(0%, 99.555969%, 98.403931%)" offset="1"/></linearGradient></defs><g clip-path="url(#de94ac5873)"><g clip-path="url(#b666267000)"><path fill="url(#2780edd7fd)" d="M 40.835938 95.722656 L 40.835938 164.113281 L 144.226562 164.113281 L 144.226562 95.722656 Z M 40.835938 95.722656 " fill-rule="nonzero"/></g></g><g clip-path="url(#653f46ce41)"><g clip-path="url(#376ac8204b)"><path fill="url(#a09f57cbfb)" d="M 9.613281 96.691406 L 9.613281 198.050781 L 78.003906 198.050781 L 78.003906 96.691406 Z M 9.613281 96.691406 " fill-rule="nonzero"/></g></g><g clip-path="url(#a6e0043a6c)"><g clip-path="url(#e9e79b0378)"><path fill="url(#3a507a2ced)" d="M 21.617188 265.105469 L 134.382812 220.414062 L 96.921875 125.902344 L -15.839844 170.59375 Z M 21.617188 265.105469 " fill-rule="nonzero"/></g></g><g clip-path="url(#5fff7c7e80)"><g clip-path="url(#5939ca7dd7)"><path fill="url(#b7df0d015b)" d="M 178.019531 142.199219 L 83.8125 103.195312 L 37.984375 213.898438 L 132.191406 252.898438 Z M 178.019531 142.199219 " fill-rule="nonzero"/></g></g><g clip-path="url(#2d8ec6b67d)"><g clip-path="url(#f86f25f66d)"><path fill="url(#9e0588385c)" d="M 63.929688 151.816406 L 63.929688 171.011719 L 85.429688 171.011719 L 85.429688 151.816406 Z M 63.929688 151.816406 " fill-rule="nonzero"/></g></g><g fill="#00e7fe" fill-opacity="1"><g transform="translate(156.903477, 160.97509)"><g><path d="M 3.078125 -30.734375 L 17.609375 -30.734375 C 21.054688 -30.734375 23.796875 -30.035156 25.828125 -28.640625 C 27.867188 -27.253906 28.890625 -25.390625 28.890625 -23.046875 C 28.890625 -21.441406 28.421875 -20.03125 27.484375 -18.8125 C 26.546875 -17.59375 25.257812 -16.753906 23.625 -16.296875 C 25.550781 -15.910156 27.082031 -15.015625 28.21875 -13.609375 C 29.363281 -12.203125 29.9375 -10.503906 29.9375 -8.515625 C 29.9375 -5.910156 28.875 -3.835938 26.75 -2.296875 C 24.632812 -0.765625 21.765625 0 18.140625 0 L 3.078125 0 Z M 10.84375 -24.765625 L 10.84375 -18.4375 L 17.171875 -18.4375 C 18.304688 -18.4375 19.210938 -18.722656 19.890625 -19.296875 C 20.566406 -19.867188 20.90625 -20.648438 20.90625 -21.640625 C 20.90625 -22.609375 20.566406 -23.367188 19.890625 -23.921875 C 19.210938 -24.484375 18.304688 -24.765625 17.171875 -24.765625 Z M 10.84375 -12.828125 L 10.84375 -6.015625 L 17.171875 -6.015625 C 18.628906 -6.015625 19.773438 -6.320312 20.609375 -6.9375 C 21.441406 -7.550781 21.859375 -8.398438 21.859375 -9.484375 C 21.859375 -10.503906 21.441406 -11.316406 20.609375 -11.921875 C 19.773438 -12.523438 18.628906 -12.828125 17.171875 -12.828125 Z M 10.84375 -12.828125 "/></g></g></g><g fill="#00e7fe" fill-opacity="1"><g transform="translate(188.292071, 160.97509)"><g><path d="M 10.890625 0 L 3.078125 0 L 3.078125 -30.734375 L 10.890625 -30.734375 Z M 10.890625 0 "/></g></g></g><g fill="#00e7fe" fill-opacity="1"><g transform="translate(202.252313, 160.97509)"><g><path d="M 26.5625 -24.453125 L 17.296875 -24.453125 L 17.296875 0 L 9.484375 0 L 9.484375 -24.453125 L 0.3125 -24.453125 L 0.3125 -30.78125 L 26.5625 -30.78125 Z M 26.5625 -24.453125 "/></g></g></g><g fill="#00e7fe" fill-opacity="1"><g transform="translate(229.075288, 160.97509)"><g><path d="M 36.84375 0 L 29.9375 0 L 29.90625 -19.984375 L 22.53125 -3.078125 L 17.4375 -3.078125 L 10.046875 -19.984375 L 10.046875 0 L 3.078125 0 L 3.078125 -30.78125 L 11.640625 -30.78125 L 19.984375 -12.46875 L 28.3125 -30.78125 L 36.84375 -30.78125 Z M 36.84375 0 "/></g></g></g><g fill="#00e7fe" fill-opacity="1"><g transform="translate(269.024406, 160.97509)"><g><path d="M 23.484375 -5.65625 L 10.046875 -5.65625 L 7.8125 0 L -0.21875 0 L 13.046875 -30.734375 L 21.078125 -30.734375 L 34.03125 0 L 25.6875 0 Z M 21.203125 -11.59375 L 16.8125 -22.96875 L 12.34375 -11.59375 Z M 21.203125 -11.59375 "/></g></g></g><g fill="#00e7fe" fill-opacity="1"><g transform="translate(302.827502, 160.97509)"><g><path d="M 21.609375 0 L 17.03125 -8.65625 L 10.890625 -8.65625 L 10.890625 0 L 3.078125 0 L 3.078125 -30.734375 L 16.8125 -30.734375 C 20.882812 -30.734375 24.03125 -29.800781 26.25 -27.9375 C 28.476562 -26.082031 29.59375 -23.441406 29.59375 -20.015625 C 29.59375 -15.273438 27.734375 -11.984375 24.015625 -10.140625 L 30.46875 0 Z M 10.890625 -14.796875 L 16.8125 -14.796875 C 18.507812 -14.796875 19.828125 -15.21875 20.765625 -16.0625 C 21.703125 -16.914062 22.171875 -18.144531 22.171875 -19.75 C 22.171875 -21.332031 21.703125 -22.535156 20.765625 -23.359375 C 19.828125 -24.179688 18.507812 -24.59375 16.8125 -24.59375 L 10.890625 -24.59375 Z M 10.890625 -14.796875 "/></g></g></g><g fill="#00e7fe" fill-opacity="1"><g transform="translate(334.61119, 160.97509)"><g><path d="M 23.09375 0 L 14.96875 -12.078125 L 10.890625 -7.546875 L 10.890625 0 L 3.078125 0 L 3.078125 -30.734375 L 10.890625 -30.734375 L 10.890625 -17.4375 L 22.65625 -30.734375 L 31.703125 -30.734375 L 20.28125 -18 L 32.453125 0 Z M 23.09375 0 "/></g></g></g><g fill="#000000" fill-opacity="1"><g transform="translate(205.4501, 190.272211)"><g><path d="M 7.140625 -3.640625 L 17.4375 -3.640625 L 17.4375 0 L 3.125 0 L 3.125 -23.796875 L 7.140625 -23.796875 Z M 7.140625 -3.640625 "/></g></g></g><g fill="#000000" fill-opacity="1"><g transform="translate(236.74654, 190.272211)"><g><path d="M 18.484375 -5.375 L 6.484375 -5.375 L 4.21875 0 L 0.03125 0 L 10.53125 -23.796875 L 14.640625 -23.796875 L 25.046875 0 L 20.765625 0 Z M 16.953125 -8.9375 L 12.46875 -19.5 L 7.984375 -8.9375 Z M 16.953125 -8.9375 "/></g></g></g><g fill="#000000" fill-opacity="1"><g transform="translate(274.974279, 190.272211)"><g><path d="M 3.125 -23.796875 L 13.453125 -23.796875 C 15.921875 -23.796875 17.867188 -23.265625 19.296875 -22.203125 C 20.722656 -21.148438 21.4375 -19.695312 21.4375 -17.84375 C 21.4375 -16.507812 21.0625 -15.367188 20.3125 -14.421875 C 19.570312 -13.484375 18.554688 -12.859375 17.265625 -12.546875 C 18.847656 -12.265625 20.09375 -11.59375 21 -10.53125 C 21.90625 -9.46875 22.359375 -8.132812 22.359375 -6.53125 C 22.359375 -4.488281 21.585938 -2.890625 20.046875 -1.734375 C 18.503906 -0.578125 16.390625 0 13.703125 0 L 3.125 0 Z M 7.140625 -20.21875 L 7.140625 -13.9375 L 13.25 -13.9375 C 14.519531 -13.9375 15.515625 -14.21875 16.234375 -14.78125 C 16.960938 -15.351562 17.328125 -16.132812 17.328125 -17.125 C 17.328125 -18.125 16.96875 -18.890625 16.25 -19.421875 C 15.539062 -19.953125 14.539062 -20.21875 13.25 -20.21875 Z M 7.140625 -10.40625 L 7.140625 -3.5625 L 13.25 -3.5625 C 14.84375 -3.5625 16.070312 -3.863281 16.9375 -4.46875 C 17.8125 -5.070312 18.25 -5.925781 18.25 -7.03125 C 18.25 -8.070312 17.804688 -8.894531 16.921875 -9.5 C 16.035156 -10.101562 14.8125 -10.40625 13.25 -10.40625 Z M 7.140625 -10.40625 "/></g></g></g><g fill="#000000" fill-opacity="1"><g transform="translate(312.114744, 190.272211)"><g><path d="M 10.9375 -23.953125 C 14.019531 -23.953125 16.796875 -23.140625 19.265625 -21.515625 L 17.609375 -17.984375 C 15.179688 -19.453125 12.859375 -20.1875 10.640625 -20.1875 C 9.441406 -20.1875 8.492188 -19.96875 7.796875 -19.53125 C 7.109375 -19.101562 6.765625 -18.492188 6.765625 -17.703125 C 6.765625 -16.910156 7.082031 -16.234375 7.71875 -15.671875 C 8.351562 -15.117188 9.144531 -14.710938 10.09375 -14.453125 C 11.039062 -14.191406 12.066406 -13.863281 13.171875 -13.46875 C 14.285156 -13.070312 15.316406 -12.65625 16.265625 -12.21875 C 17.222656 -11.78125 18.015625 -11.085938 18.640625 -10.140625 C 19.265625 -9.203125 19.578125 -8.066406 19.578125 -6.734375 C 19.578125 -4.648438 18.742188 -2.984375 17.078125 -1.734375 C 15.410156 -0.484375 13.253906 0.140625 10.609375 0.140625 C 8.796875 0.140625 7.035156 -0.195312 5.328125 -0.875 C 3.628906 -1.5625 2.148438 -2.484375 0.890625 -3.640625 L 2.609375 -7.109375 C 3.816406 -5.992188 5.140625 -5.132812 6.578125 -4.53125 C 8.015625 -3.9375 9.378906 -3.640625 10.671875 -3.640625 C 12.078125 -3.640625 13.171875 -3.894531 13.953125 -4.40625 C 14.734375 -4.914062 15.125 -5.625 15.125 -6.53125 C 15.125 -7.34375 14.804688 -8.023438 14.171875 -8.578125 C 13.535156 -9.128906 12.738281 -9.535156 11.78125 -9.796875 C 10.832031 -10.066406 9.800781 -10.382812 8.6875 -10.75 C 7.582031 -11.125 6.554688 -11.519531 5.609375 -11.9375 C 4.660156 -12.363281 3.867188 -13.039062 3.234375 -13.96875 C 2.597656 -14.894531 2.28125 -16.015625 2.28125 -17.328125 C 2.28125 -19.347656 3.070312 -20.957031 4.65625 -22.15625 C 6.238281 -23.351562 8.332031 -23.953125 10.9375 -23.953125 Z M 10.9375 -23.953125 "/></g></g></g></svg>